<?xml version="1.0" encoding="UTF-8" standalone="no"?>
<!-- Created with Inkscape (http://www.inkscape.org/) -->

<svg
   width="80mm"
   height="80mm"
   viewBox="0 0 80 80"
   version="1.1"
   id="svg1"
   inkscape:version="1.4.2 (f4327f4, 2025-05-13)"
   sodipodi:docname="right-to-repair-patch.svg"
   xmlns:inkscape="http://www.inkscape.org/namespaces/inkscape"
   xmlns:sodipodi="http://sodipodi.sourceforge.net/DTD/sodipodi-0.dtd"
   xmlns="http://www.w3.org/2000/svg"
   xmlns:svg="http://www.w3.org/2000/svg"
   xmlns:rdf="http://www.w3.org/1999/02/22-rdf-syntax-ns#"
   xmlns:cc="http://creativecommons.org/ns#"
   xmlns:dc="http://purl.org/dc/elements/1.1/">
  <sodipodi:namedview
     id="namedview1"
     pagecolor="#000000"
     bordercolor="#000000"
     borderopacity="0.25"
     inkscape:showpageshadow="2"
     inkscape:pageopacity="0.0"
     inkscape:pagecheckerboard="0"
     inkscape:deskcolor="#000000"
     inkscape:document-units="mm"
     showborder="false"
     inkscape:clip-to-page="false"
     showgrid="true"
     inkscape:zoom="1.15"
     inkscape:cx="151.30435"
     inkscape:cy="150.43478"
     inkscape:window-width="3440"
     inkscape:window-height="1351"
     inkscape:window-x="-9"
     inkscape:window-y="-9"
     inkscape:window-maximized="1"
     inkscape:current-layer="layer1">
    <sodipodi:guide
       position="39.999999,79.999998"
       orientation="-1,0"
       id="guide2"
       inkscape:locked="false"
       inkscape:label=""
       inkscape:color="rgb(0,134,229)" />
    <sodipodi:guide
       position="0,39.999999"
       orientation="0,1"
       id="guide3"
       inkscape:locked="false"
       inkscape:label=""
       inkscape:color="rgb(0,134,229)" />
  </sodipodi:namedview>
  <defs
     id="defs1">
    <inkscape:path-effect
       effect="offset"
       id="path-effect4"
       is_visible="true"
       lpeversion="1.3"
       linejoin_type="miter"
       unit="mm"
       offset="2"
       miter_limit="4"
       attempt_force_join="false"
       update_on_knot_move="true" />
    <inkscape:path-effect
       effect="offset"
       id="path-effect7652"
       is_visible="true"
       lpeversion="1.3"
       linejoin_type="miter"
       unit="mm"
       offset="0"
       miter_limit="4"
       attempt_force_join="false"
       update_on_knot_move="true" />
    <inkscape:path-effect
       effect="offset"
       id="path-effect7652-2"
       is_visible="true"
       lpeversion="1.3"
       linejoin_type="miter"
       unit="mm"
       offset="2"
       miter_limit="4"
       attempt_force_join="false"
       update_on_knot_move="true" />
  </defs>
  <g
     inkscape:label="Patch"
     inkscape:groupmode="layer"
     id="layer1"
     style="display:inline">
    <path
       id="path7647-2-9"
       style="display:none;fill:#d35f5f;fill-opacity:1;stroke:none;stroke-width:5.03244;stroke-linecap:round;stroke-dasharray:none;stroke-opacity:1"
       d="m 40,13.462891 c -16.864466,0 -30.5019531,13.635358 -30.5019531,30.5 0,16.864641 13.6373221,30.501953 30.5019531,30.501953 16.86464,0 30.501953,-13.637313 30.501953,-30.501953 0,-16.864641 -13.63748,-30.5 -30.501953,-30.5 z"
       inkscape:label="material-circle-orig"
       sodipodi:insensitive="true" />
    <path
       id="path7640-7-9-5"
       style="baseline-shift:baseline;display:none;overflow:visible;opacity:0.605128;vector-effect:none;fill:#0000ff;enable-background:accumulate;stop-color:#000000"
       d="m 74.064453,175.05859 -2.287109,0.31836 c -0.0075,8.8e-4 -0.01398,0.001 -0.02148,0.002 l -0.02148,0.004 c -1.379752,0.16398 -2.666816,0.45386 -3.857422,0.86719 -3.647169,1.26618 -6.099681,3.67746 -7.560547,5.99219 -2.554331,4.04737 -1.404252,8.28813 -1.013672,10.45898 0.0032,0.0176 0.03491,0.4037 0.01367,0.83008 -0.02124,0.42638 -0.0777,0.93059 -0.164062,1.37695 -0.08488,0.43872 -0.223114,0.93106 -0.34375,1.30664 -0.02545,0.0792 -0.171432,0.47241 -0.175782,0.51368 h 0.002 l -1.833985,3.54492 11.535156,9.63867 3.21875,-3.00781 0.0059,-0.006 c 0.830823,-0.76662 0.831238,-0.76725 1.8125,-1.64844 0.983086,-0.88283 2.167339,-1.91274 2.621094,-2.25781 0.207264,-0.15762 0.914625,-0.5332 1.802734,-0.97071 0.874233,-0.43067 1.989799,-0.98893 3.080078,-1.71289 1.003888,-0.6666 2.488652,-1.86381 3.117188,-2.61328 0.499395,-0.59547 0.690226,-0.99882 0.832031,-1.23437 0.216151,-0.35905 0.410203,-0.69717 0.621094,-1.15039 0.203068,-0.43642 0.421433,-1.04004 0.533203,-1.34375 0.08033,-0.21829 0.254682,-0.72952 0.357422,-1.04297 l 0.02148,-0.0645 0.01563,-0.0645 c 0.956413,-3.75512 0.0098,-7.95713 -2.273438,-12.03906 l -1.357421,-2.41211 z m -15.507812,33.69336 -6.791016,6.00782 -0.269531,-0.20508 -4.16211,-3.17969 -11.419922,14.72266 v 0.041 c -1.567252,2.3538 -1.560239,4.80918 -0.773437,7.30469 l 0.148437,0.4668 0.02734,0.0273 c 1.68763,4.41752 6.619114,6.83872 11.177735,5.38867 1.840485,-0.58528 2.899482,-1.59266 3.513671,-2.16601 0.463884,-0.43305 0.902697,-0.85558 1.212891,-1.30079 l -0.0039,0.0117 0.117187,-0.14257 14.328125,-20.66797 z"
       sodipodi:nodetypes="cccssssccccsszzzzcccccccccccccccccscccc"
       transform="translate(-20.123059,-169.49768)"
       inkscape:label="material-wrench-orig"
       sodipodi:insensitive="true" />
    <path
       id="path7647-2-9-5"
       style="display:inline;fill:none;fill-opacity:1;stroke:#00ffff;stroke-width:0.26458333;stroke-linecap:round;stroke-dasharray:none;stroke-opacity:1;vector-effect:non-scaling-stroke;-inkscape-stroke:hairline"
       inkscape:label="material"
       d="m 53.94141,5.5609009 -2.287199,0.3183268 c -0.0075,8.8e-4 -0.01369,0.00107 -0.02119,0.00207 l -0.0217,0.00413 c -1.379752,0.16398 -2.66704,0.4538005 -3.857646,0.8671305 -3.647169,1.26618 -6.099396,3.6771528 -7.560262,5.9918828 -0.150933,0.239155 -0.288975,0.479296 -0.414961,0.719336 C 23.016265,13.582581 9.4981293,27.171966 9.4981293,43.96269 c 0,6.192549 1.8386847,11.950226 5.0007287,16.757117 -0.01785,1.064366 0.17688,2.141072 0.518831,3.225643 l 0.148311,0.467155 0.02739,0.02739 c 1.451371,3.799091 5.301853,6.121327 9.251115,5.774842 4.552649,2.700346 9.87088,4.249869 15.555639,4.249869 16.86464,0 30.502015,-13.637374 30.502015,-30.502014 0,-6.516021 -2.035931,-12.549601 -5.507158,-17.501257 0.108959,-0.197117 0.216546,-0.406483 0.329179,-0.648539 0.203068,-0.43642 0.421531,-1.039878 0.533301,-1.343588 0.08033,-0.21829 0.254861,-0.729897 0.357601,-1.043347 l 0.02119,-0.06408 0.01602,-0.0646 c 0.956413,-3.75512 0.0095,-7.957128 -2.273763,-12.039058 l -1.35754,-2.4122565 z" />
    <path
       id="path7640-7-9-6"
       style="baseline-shift:baseline;display:inline;overflow:visible;vector-effect:non-scaling-stroke;fill:none;stroke:#00ffff;enable-background:accumulate;stop-color:#000000;-inkscape-stroke:hairline;stroke-width:0.26458333;stroke-dasharray:none"
       d="m 53.82591,6.5861527 -2.05465,0.28525 c -1.331272,0.15536 -2.560322,0.43234 -3.689182,0.82424 -3.402321,1.18118 -5.685457,3.4331803 -7.042977,5.5841503 -0.24883,0.39427 -0.45877,0.79055 -0.63511,1.18649 -0.13438,-0.002 -0.26926,-0.003 -0.40411,-0.003 -16.30802,0 -29.50207,13.19189 -29.50207,29.50001 0,6.09813 1.84648,11.76266 5.01313,16.46566 -0.0649,1.0439 0.11388,2.11286 0.46147,3.21531 l 0.0724,0.23254 0.01,0.01 c 1.267089,3.59347 4.931889,5.76998 8.6186,5.29735 4.46718,2.71831 9.713899,4.28088 15.32671,4.28088 16.308109,0 29.502068,-13.19397 29.502068,-29.50208 0,-6.52597 -2.114199,-12.55614 -5.698359,-17.44131 0.0146,-0.0251 0.0292,-0.0499 0.0439,-0.0744 0.20569,-0.34167 0.38182,-0.65075 0.570509,-1.05627 0.187111,-0.40211 0.377521,-0.93558 0.49971,-1.26762 0.0734,-0.19946 0.24616,-0.6997 0.34778,-1.00976 l 0.01,-0.0315 0.008,-0.0331 c 0.87488,-3.43497 0.0246,-7.36346 -2.177639,-11.3006 L 61.928381,9.6524027 Z"
       inkscape:label="tackdown" />
    <path
       id="path7640-7-9"
       style="baseline-shift:baseline;display:none;overflow:visible;opacity:0.605128;vector-effect:none;fill:#0000ff;enable-background:accumulate;stop-color:#000000"
       d="m 81.358254,179.95615 -7.524172,-2.84639 -1.824524,0.25357 c -1.265495,0.14768 -2.422293,0.40925 -3.476273,0.77515 -3.157947,1.09634 -5.271328,3.18475 -6.5257,5.17229 -2.072571,3.28402 -1.15524,6.70581 -0.735873,9.03666 0.109151,0.60666 0.05729,1.83602 -0.156579,2.94142 -0.213869,1.1054 -0.628083,2.21346 -0.693498,2.33991 l -1.107426,2.13889 8.947257,7.47655 1.937867,-1.81074 c 0,0 3.372407,-3.11167 4.583699,-4.03283 0.989722,-0.75265 3.02887,-1.45688 4.988326,-2.75797 1.047394,-0.69549 2.327919,-1.80107 2.689242,-2.23191 0.361323,-0.43084 0.456427,-0.65577 0.651872,-0.98042 0.195445,-0.32465 0.355654,-0.60458 0.522733,-0.96365 0.167079,-0.35907 0.334662,-0.83017 0.467612,-1.19143 0.13295,-0.36126 0.334923,-0.97381 0.334923,-0.97381 4.2e-5,-1.6e-4 -4.1e-5,-3.5e-4 0,-5.2e-4 0.793002,-3.11353 0.04043,-6.77297 -2.080493,-10.56473 z m -22.803689,31.46764 -6.697265,5.92367 -1.576131,-1.20303 -2.583822,-1.97456 -9.783382,12.61319 v 5.1e-4 5.2e-4 5.2e-4 5.1e-4 c -1.495848,1.90263 -1.561476,3.84766 -0.865064,6.05648 l 0.0021,0.002 0.0021,0.004 c 1.167019,3.66882 5.166893,5.73932 8.835637,4.57233 1.38828,-0.44148 2.152775,-1.16179 2.753837,-1.72289 0.601062,-0.56111 1.02371,-1.08778 1.02371,-1.08779 l 0.06821,-0.0837 13.273608,-19.14664 z"
       sodipodi:nodetypes="cccssssccccsszzzzcccccccccccccccccscccc"
       transform="translate(-20.123059,-169.49768)"
       inkscape:label="tackdown-wrench-orig"
       sodipodi:insensitive="true" />
    <circle
       style="display:none;fill:#d2d400;fill-opacity:1;stroke:none;stroke-width:5.03244;stroke-linecap:round;stroke-dasharray:none;stroke-opacity:1"
       id="path7647-2"
       cx="40.000183"
       cy="43.963768"
       r="29.501228"
       inkscape:label="tackdown-circle-orig"
       sodipodi:insensitive="true" />
    <g
       id="g7650"
       transform="translate(-20.123059,-169.49768)"
       style="display:inline;fill:#ffffff"
       inkscape:label="fist">
      <path
         id="path7647-6-6"
         style="display:none;fill:#ffffff;fill-opacity:1;stroke:none;stroke-width:4.61982;stroke-linecap:round;stroke-dasharray:none;stroke-opacity:1"
         d="m 45.154608,33.164383 c -0.0518,10e-4 -0.10375,0.01 -0.15709,0.0253 -0.0949,0.0275 -0.19339,0.0793 -0.29921,0.15503 -0.42337,0.30267 -6.426927,4.72344 -6.823347,5.01261 -0.39644,0.28917 -0.18076,0.66664 0.0889,0.96894 0.26965,0.30229 0.44615,0.48418 0.72606,0.73018 0.27992,0.24599 1.19244,0.5772 2.33371,0.43564 1.14127,-0.14155 2.960537,-0.70745 2.960537,-0.70745 l 1.08675,-1.82315 -0.0672,2.07791 2.1115,1.61386 -2.62981,-0.0429 c -0.71794,0.004 -0.87378,0.0735 -1.2392,0.70642 l -4.296897,6.36034 0.24753,6.92619 -1.64434,-4.8581 -3.81786,5.65185 c 0,0 1.06252,1.30021 1.54616,1.88567 0.48365,0.58546 0.57104,0.7125 0.68833,1.4857 0.10234,0.67446 1.38221,10.8509 1.70739,13.43897 a 29.335863,29.335863 0 0 0 2.323889,0.092 29.335863,29.335863 0 0 0 3.637507,-0.22635 l -2.603456,-15.49259 4.419367,15.20786 a 29.335863,29.335863 0 0 0 9.380302,-3.51555 l -6.407872,-15.44453 c 0,0 4.138832,-12.28624 4.292762,-12.72015 0.15392,-0.4339 0.0523,-0.84529 -0.2403,-1.15135 -0.29266,-0.30604 -6.173842,-5.99352 -6.614062,-6.41098 -0.26827,-0.25439 -0.48544,-0.38601 -0.71004,-0.38137 z"
         inkscape:label="forearm-orig"
         sodipodi:insensitive="true"
         transform="translate(20.123059,169.49768)" />
      <path
         id="path7647-6"
         style="display:inline;fill:#ffffff;fill-opacity:1;stroke:none;stroke-width:4.61982;stroke-linecap:round;stroke-dasharray:none;stroke-opacity:1"
         d="m 65.277669,202.66205 c -0.05183,0.001 -0.103755,0.01 -0.157096,0.0253 -0.09495,0.0275 -0.193391,0.0793 -0.299207,0.15503 -0.423369,0.30267 -6.42693,4.72344 -6.823356,5.01261 -0.396436,0.28917 -0.180753,0.66664 0.08888,0.96894 0.269647,0.30229 0.446148,0.48418 0.726054,0.73018 0.279916,0.24599 1.192446,0.5772 2.333707,0.43564 1.141271,-0.14155 2.960543,-0.70745 2.960543,-0.70745 l 1.086755,-1.82315 -0.06718,2.07791 2.111499,1.61386 -2.629814,-0.0429 c -0.717944,0.004 -0.873782,0.0735 -1.2392,0.70642 l -4.296896,6.36034 0.24753,6.92619 -1.644344,-4.8581 -3.817855,5.65185 c 0,0 1.062511,1.30021 1.546159,1.88567 0.483649,0.58546 0.571035,0.7125 0.68833,1.4857 0.05059,0.33345 0.389009,2.98924 0.757577,5.90248 1.067686,0.15903 2.160594,0.24133 3.273185,0.24133 0.8155,0 1.620572,-0.044 2.412773,-0.13022 l -1.378211,-8.20157 2.346627,8.07444 c 3.132675,-0.48247 6.044504,-1.62524 8.590173,-3.28197 l -3.545003,-8.5447 c 0,0 4.138829,-12.28624 4.292761,-12.72015 0.153923,-0.4339 0.05231,-0.84529 -0.240295,-1.15135 -0.292662,-0.30604 -6.173841,-5.99352 -6.614067,-6.41098 -0.268267,-0.25439 -0.48544,-0.38601 -0.710034,-0.38137 z m 7.977808,32.00683 c -2.675632,1.66237 -5.687359,2.83267 -8.9085,3.38377 l 1.229899,4.23334 a 29.335863,29.335863 0 0 0 9.380306,-3.51555 z m -10.222115,3.57291 c -0.954874,0.11134 -1.926058,0.16846 -2.910417,0.16846 -0.975585,0 -1.937927,-0.0565 -2.884578,-0.16588 0.24034,1.90626 0.453264,3.60163 0.561206,4.46071 a 29.335863,29.335863 0 0 0 2.323889,0.092 29.335863,29.335863 0 0 0 3.637504,-0.22635 z"
         inkscape:label="forearm" />
      <path
         id="path7637"
         style="vector-effect:non-scaling-stroke;fill:#ffffff;fill-opacity:1;stroke-width:0.264583;-inkscape-stroke:hairline"
         d="m 60.543018,213.67039 -7.841745,6.937 c -0.704206,0.58245 -0.934477,0.42587 -1.589359,-0.0535 l -0.275805,-0.21071 -7.248584,9.41826 a 0.60000002,0.60000002 0 0 1 -0.842016,0.11006 0.60000002,0.60000002 0 0 1 -0.110552,-0.84189 l 7.247387,-9.41473 -1.639986,-1.25274 -7.97024,10.27501 c -0.509913,0.64822 -0.761442,2.03255 -0.361377,3.30144 0.675487,2.12357 2.944645,3.29782 5.068205,2.62234 1.172747,-0.37294 2.351943,-1.83448 2.351943,-1.83448 z"
         inkscape:label="wrench-bottom" />
      <path
         id="path7639"
         style="vector-effect:non-scaling-stroke;fill:#ffffff;fill-opacity:1;stroke-width:0.264583;-inkscape-stroke:hairline"
         d="m 69.5161,180.9737 c -2.490055,0.86447 -3.981617,2.36819 -4.972233,3.93781 -1.320808,2.09284 -0.758441,4.46741 -0.320024,6.90413 0.438418,2.43672 -0.493743,5.94633 -1.138497,7.19259 l 5.065152,4.23328 c 0,0 3.24405,-3.03271 4.817723,-4.22945 1.573684,-1.19673 3.774424,-1.95896 5.143804,-2.86824 1.369371,-0.90929 2.11887,-1.57635 2.506073,-2.35026 l -4.722558,-2.27205 -4.823138,-2.94284 c -0.881684,-0.53513 -1.68813,-1.59744 -1.294108,-2.4863 l 2.579066,-5.74859 c -1.070364,0.12491 -2.011244,0.34177 -2.84126,0.62992 z m 0.987642,9.54392 4.894026,2.93385 -2.128086,3.55046 -4.894039,-2.93386 z"
         sodipodi:nodetypes="sssccsscccccsccccc"
         inkscape:label="wrench-top" />
      <path
         style="vector-effect:non-scaling-stroke;fill:#ffffff;fill-opacity:1;stroke-width:0.264583;-inkscape-stroke:hairline"
         d="m 81.227398,192.46313 c 0.783757,-1.84576 0.563461,-5.59332 -1.488356,-9.26153 l -2.853449,6.3044 1.318541,1.47205 z"
         id="path7640"
         sodipodi:nodetypes="ccccc"
         inkscape:label="wrench-top-right" />
      <rect
         style="display:inline;fill:#ffffff;vector-effect:non-scaling-stroke;fill-opacity:1;stroke-width:0.264583;-inkscape-stroke:hairline"
         id="rect7642-4-1"
         width="0.89296871"
         height="2.5796874"
         x="161.94057"
         y="128.34419"
         transform="rotate(30.797111)"
         inkscape:label="wrench-screw-3" />
      <rect
         style="display:inline;fill:#ffffff;vector-effect:non-scaling-stroke;fill-opacity:1;stroke-width:0.264583;-inkscape-stroke:hairline"
         id="rect7642-4"
         width="0.89296871"
         height="2.5796874"
         x="160.51787"
         y="128.35364"
         transform="rotate(30.797111)"
         inkscape:label="wrench-screw-2" />
      <rect
         style="vector-effect:non-scaling-stroke;fill:#ffffff;fill-opacity:1;stroke-width:0.264583;-inkscape-stroke:hairline"
         id="rect7642"
         width="0.89296871"
         height="2.5796874"
         x="159.06802"
         y="128.34515"
         transform="rotate(30.79711)"
         inkscape:label="wrench-screw-1" />
      <path
         style="display:inline;fill:#ffffff;vector-effect:non-scaling-stroke;fill-opacity:1;stroke-width:0.264583;-inkscape-stroke:hairline"
         d="m 46.563762,211.31394 -1.518978,2.10178 c -0.216318,0.37467 -0.17189,0.7638 0.219698,1.09115 l 5.887066,4.55106 c 0.38733,0.30478 0.905637,0.38683 1.272292,0.0949 l 1.368588,-1.26253 c 0.537109,-0.57063 0.343905,-1.05453 -0.03481,-1.39491 l -5.894535,-5.29051 c -0.294044,-0.23899 -1.015217,-0.24246 -1.299325,0.10907 z"
         id="path7644"
         sodipodi:nodetypes="cccccccccc"
         inkscape:label="finger-1" />
      <path
         style="display:inline;fill:#ffffff;vector-effect:non-scaling-stroke;fill-opacity:1;stroke-width:0.264583;-inkscape-stroke:hairline"
         d="m 50.2505,206.74458 -1.924185,2.12562 c -0.281886,0.31461 -0.216976,1.05381 0.153814,1.38723 l 6.030372,5.29778 c 0.423795,0.40698 1.225184,0.54029 1.541367,0.24069 l 1.642473,-1.50538 c 0.358687,-0.34428 0.260039,-1.10773 -0.179644,-1.57401 l -5.689978,-5.97004 c -0.217401,-0.23531 -0.988953,-0.61871 -1.574219,-0.002 z"
         id="path7645"
         sodipodi:nodetypes="cccccccccc"
         inkscape:label="finger-2" />
      <path
         style="display:inline;fill:#ffffff;vector-effect:non-scaling-stroke;fill-opacity:1;stroke-width:0.264583;-inkscape-stroke:hairline"
         d="m 58.354781,204.9687 c 0.388246,0.42668 0.515954,0.74342 0.245141,0.97863 l -1.893292,1.43177 c -0.320573,0.24933 -0.618923,1.09001 -0.09169,1.70231 l 1.283122,1.40241 c 0.700394,0.68116 1.358513,0.75734 1.890626,0.79451 l 1.408225,0.0164 -1.098389,0.75654 c -1.093474,0.63112 -1.122816,0.37788 -1.707742,-0.17585 l -6.209337,-6.43387 c -0.114121,-0.10638 -0.897932,-0.85935 -0.425088,-1.42688 l 1.786281,-2.07077 c 0.303462,-0.32099 1.190455,-0.58863 1.784443,-0.033 z"
         id="path7643"
         sodipodi:nodetypes="cccccccccccccc"
         inkscape:label="finger-3" />
      <path
         style="vector-effect:non-scaling-stroke;fill:#ffffff;fill-opacity:1;stroke-width:0.264583;-inkscape-stroke:hairline"
         d="m 63.059167,201.31792 c 0.432922,0.48625 0.424334,0.89921 0.209297,1.0567 l -2.767873,2.10472 c -0.308574,0.20373 -0.695311,0.13102 -1.22541,-0.35645 l -2.760218,-2.8898 c -0.464191,-0.48997 -0.523284,-0.93712 -0.395416,-1.09243 l 1.867833,-2.16425 c 0.111303,-0.12672 1.047392,-0.72053 1.913291,0.12787 z"
         id="path7642"
         sodipodi:nodetypes="ccccccccc"
         inkscape:label="finger-4" />
    </g>
    <circle
       style="display:none;opacity:0.229798;fill:none;fill-opacity:1;stroke:#000000;stroke-width:4;stroke-linecap:round;stroke-dasharray:none;stroke-opacity:1"
       id="path7647"
       cx="40.000183"
       cy="43.963768"
       r="23.448883"
       inkscape:label="arc-orig"
       sodipodi:insensitive="true" />
    <path
       id="path7647-65"
       style="baseline-shift:baseline;display:inline;overflow:visible;vector-effect:none;fill:#ff0000;stroke-linecap:round;enable-background:accumulate;stop-color:#000000"
       d="m 39.999881,18.514103 c -14.03134,0 -25.44909,11.41775 -25.44909,25.44909 0,4.71922 1.29162,9.14268 3.53984,12.93565 l 2.66444,-3.43494 c -1.41169,-2.86175 -2.20452,-6.08655 -2.20452,-9.50071 0,-11.86958 9.57975,-21.44933 21.44933,-21.44933 0.36616,0 0.73034,0.009 1.091929,0.0274 -0.21643,-1.15016 -0.51133,-2.53399 -0.511079,-4.02042 -0.193121,-0.004 -0.3867,-0.007 -0.58085,-0.007 z m 20.324858,10.1508 c -0.22871,0.17125 -0.457569,0.33474 -0.67644,0.48008 -0.951459,0.63177 -1.92146,1.12299 -2.78123,1.54719 2.87153,3.648 4.58215,8.25491 4.58215,13.27102 0,11.86958 -9.579759,21.44934 -21.449338,21.44934 -3.30339,0 -6.429101,-0.74228 -9.22062,-2.06913 l -1.16789,1.68466 -0.0682,0.0837 c 0,1e-5 -0.422651,0.52668 -1.02371,1.08779 -0.10391,0.097 -0.21261,0.19857 -0.32866,0.30283 3.5314,1.85797 7.54977,2.9099 11.8091,2.9099 14.031339,0 25.449089,-11.41776 25.449089,-25.4491 0,-5.73683 -1.90864,-11.03697 -5.12423,-15.29829 z"
       inkscape:label="arc-cut" />
    <path
       id="path7640-7-9-6-5"
       style="baseline-shift:baseline;display:inline;overflow:visible;fill:none;stroke:#333333;stroke-width:4;stroke-dasharray:none;stroke-opacity:1;enable-background:accumulate;stop-color:#000000;opacity:0.8"
       d="m 53.82591,6.5861527 -2.05465,0.28525 c -1.331272,0.15536 -2.560322,0.43234 -3.689182,0.82424 -3.402321,1.18118 -5.685457,3.4331803 -7.042977,5.5841503 -0.24883,0.39427 -0.45877,0.79055 -0.63511,1.18649 -0.13438,-0.002 -0.26926,-0.003 -0.40411,-0.003 -16.30802,0 -29.50207,13.19189 -29.50207,29.50001 0,6.09813 1.84648,11.76266 5.01313,16.46566 -0.0649,1.0439 0.11388,2.11286 0.46147,3.21531 l 0.0724,0.23254 0.01,0.01 c 1.267089,3.59347 4.931889,5.76998 8.6186,5.29735 4.46718,2.71831 9.713899,4.28088 15.32671,4.28088 16.308109,0 29.502068,-13.19397 29.502068,-29.50208 0,-6.52597 -2.114199,-12.55614 -5.698359,-17.44131 0.0146,-0.0251 0.0292,-0.0499 0.0439,-0.0744 0.20569,-0.34167 0.38182,-0.65075 0.570509,-1.05627 0.187111,-0.40211 0.377521,-0.93558 0.49971,-1.26762 0.0734,-0.19946 0.24616,-0.6997 0.34778,-1.00976 l 0.01,-0.0315 0.008,-0.0331 c 0.87488,-3.43497 0.0246,-7.36346 -2.177639,-11.3006 L 61.928381,9.6524027 Z"
       inkscape:label="outer-satin-preview" />
  </g>
  <metadata
     id="metadata1">
    <rdf:RDF>
      <cc:Work
         rdf:about="">
        <dc:creator>
          <cc:Agent>
            <dc:title>Kay Antoniak &lt;kantoniak@kantoniak.com&gt;</dc:title>
          </cc:Agent>
        </dc:creator>
        <cc:license
           rdf:resource="http://creativecommons.org/licenses/by-nc-sa/4.0/" />
      </cc:Work>
      <cc:License
         rdf:about="http://creativecommons.org/licenses/by-nc-sa/4.0/">
        <cc:permits
           rdf:resource="http://creativecommons.org/ns#Reproduction" />
        <cc:permits
           rdf:resource="http://creativecommons.org/ns#Distribution" />
        <cc:requires
           rdf:resource="http://creativecommons.org/ns#Notice" />
        <cc:requires
           rdf:resource="http://creativecommons.org/ns#Attribution" />
        <cc:prohibits
           rdf:resource="http://creativecommons.org/ns#CommercialUse" />
        <cc:permits
           rdf:resource="http://creativecommons.org/ns#DerivativeWorks" />
        <cc:requires
           rdf:resource="http://creativecommons.org/ns#ShareAlike" />
      </cc:License>
    </rdf:RDF>
  </metadata>
</svg>
